#!OML:ASF H:\ManfredObstacles\Project 1\Capture day 1\Session 1\Male.ASF
:FULLY-SPECIFIED
:DEGREES
483
root 2.02905 16.6333 -26.987 -168.3 -14.813 -176.195
lowerback -12.3622 -3.78351 1.66305
upperback 0.0640554 -5.7036 3.61786
thorax 7.21597 -2.86363 1.83069
lowerneck 2.21842 -1.92178 -6.7844
upperneck -10.5104 -2.60595 7.60522
head -3.28382 -1.51692 3.52389
rclavicle -5.4467e-014 9.93923e-015
rhumerus -29.8784 -20.6862 -79.1944
rradius 23.7091
rwrist 36.8835
rhand -0.598182 -7.4502
rfingers 7.12502
rthumb 25.0173 -35.832
lclavicle -5.4467e-014 9.93923e-015
lhumerus -22.275 5.28025 94.4234
lradius 24.1657
lwrist -23.9763
lhand -11.1524 8.06289
lfingers 7.12502
lthumb 14.8736 37.509
rfemur -28.5544 -5.15794 28.4199
rtibia 25.381
rfoot -17.3078 12.7773
rtoes 12.8136
lfemur 3.06039 -7.18126 -8.66575
ltibia 17.1423
lfoot 14.6771 -13.1308
ltoes 0.213186
484
root 2.03325 16.6352 -26.9911 -168.157 -14.8021 -176.392
lowerback -12.3294 -3.79669 1.53557
upperback -0.00904796 -5.69725 3.60649
thorax 7.13003 -2.86585 1.89528
lowerneck 2.5246 -1.84974 -6.73096
upperneck -10.7432 -2.52806 7.45911
head -3.41378 -1.47924 3.47702
rclavicle -7.05686e-015 1.86858e-014
rhumerus -30.0973 -20.403 -79.2305
rradius 23.7718
rwrist 36.7724
rhand -0.684917 -7.48934
rfingers 7.12502
rthumb 24.9342 -35.8827
lclavicle -7.05686e-015 1.86858e-014
lhumerus -22.2914 4.74323 94.8437
lradius 24.4093
lwrist -23.7913
lhand -11.245 7.89616
lfingers 7.12502
lthumb 14.7845 37.3488
rfemur -28.6765 -5.18951 28.2242
rtibia 25.4556
rfoot -17.524 12.7403
rtoes 12.312
lfemur 3.03291 -7.16452 -8.86139
ltibia 17.021
lfoot 14.7465 -13.0544
ltoes 0.664983
485
root 2.03691 16.6394 -26.9954 -168.002 -14.8482 -176.581
lowerback -12.3511 -3.77823 1.4716
upperback -0.0362682 -5.65601 3.55342
thorax 7.11221 -2.84568 1.88212
lowerneck 2.51928 -1.78805 -6.91616
upperneck -10.8009 -2.43771 7.68648
head -3.43033 -1.44008 3.57617
rclavicle 3.86139e-014 -2.78299e-014
rhumerus -30.2646 -20.2578 -79.2849
rradius 23.8681
rwrist 36.5753
rhand -0.732091 -7.53553
rfingers 7.12502
rthumb 24.889 -35.9352
lclavicle 3.86139e-014 -2.78299e-014
lhumerus -22.1691 3.9693 95.2325
lradius 24.5262
lwrist -23.3641
lhand -11.242 7.80467
lfingers 7.12502
lthumb 14.7874 37.2571
rfemur -28.799 -5.22598 28.0381
rtibia 25.5447
rfoot -17.6645 12.7057
rtoes 11.8257
lfemur 2.98542 -7.18283 -9.02785
ltibia 16.8527
lfoot 14.7722 -13.0035
ltoes 0.714643
486
root 2.04017 16.6401 -27.0012 -167.927 -14.9354 -176.727
lowerback -12.3566 -3.78029 1.41346
upperback -0.0134143 -5.64683 3.53159
thorax 7.14265 -2.8412 1.89217
lowerneck 2.32066 -1.78116 -6.95464
upperneck -10.7323 -2.42126 7.73514
head -3.37656 -1.43093 3.59289
rclavicle 8.16508e-014 2.3059e-014
rhumerus -30.3372 -20.1872 -79.3165
rradius 24.0271
rwrist 36.447
rhand -0.64338 -7.60437
rfingers 7.12502
rthumb 24.974 -35.9922
lclavicle 8.16508e-014 2.3059e-014
lhumerus -22.0654 3.41525 95.5696
lradius 24.6738
lwrist -23.1358
lhand -11.1585 7.76324
lfingers 7.12502
lthumb 14.8678 37.2098
rfemur -28.8068 -5.18255 27.8527
rtibia 25.642
rfoot -17.8332 12.6459
rtoes 11.1815
lfemur 3.02183 -7.17638 -9.14803
ltibia 16.6603
lfoot 14.8844 -12.8722
ltoes 0.58948
487
root 2.04192 16.635 -27.0069 -168.04 -14.9899 -176.831
lowerback -12.2149 -3.77716 1.38543
upperback 0.0584568 -5.63123 3.52059
thorax 7.14055 -2.83285 1.90631
lowerneck 2.04054 -1.82609 -6.783
upperneck -10.5317 -2.47936 7.52415
head -3.27157 -1.45038 3.49323
rclavicle -6.43565e-014 7.15625e-015
rhumerus -30.3703 -20.2548 -79.2578
rradius 24.001
rwrist 36.4732
rhand -0.628228 -7.5693
rfingers 7.12502
rthumb 24.9885 -35.9551
lclavicle -6.43565e-014 7.15625e-015
lhumerus -22.0251 3.19948 95.818
lradius 24.7536
lwrist -23.34
lhand -11.0478 7.67147
lfingers 7.12502
lthumb 14.9744 37.1101
rfemur -28.6121 -5.03676 27.6488
rtibia 25.734
rfoot -18.1759 12.5263
rtoes 10.9009
lfemur 3.27007 -7.15217 -9.27853
ltibia 16.4944
lfoot 14.9691 -12.7273
ltoes 0.79764
488
root 2.0424 16.6319 -27.012 -168.211 -14.9969 -176.969
lowerback -12.0388 -3.76411 1.3372
upperback 0.156446 -5.59533 3.48492
thorax 7.14549 -2.81385 1.9109
lowerneck 1.80307 -1.88609 -6.81312
upperneck -10.3517 -2.552 7.52814
head -3.17246 -1.48017 3.49441
rclavicle 2.10215e-014 -8.74653e-015
rhumerus -30.26 -20.5409 -79.1334
rradius 23.647
rwrist 36.7938
rhand -0.668921 -7.46413
rfingers 7.12502
rthumb 24.9495 -35.8554
lclavicle 2.10215e-014 -8.74653e-015
lhumerus -22.015 3.10233 95.9818
lradius 24.7394
lwrist -23.5784
lhand -10.9833 7.49603
lfingers 7.12502
lthumb 15.0366 36.93
rfemur -28.3487 -4.88538 27.4031
rtibia 25.8271
rfoot -18.4808 12.3735
rtoes 10.9478
lfemur 3.56512 -7.14649 -9.47984
ltibia 16.3741
lfoot 15.0265 -12.6432
ltoes 1.90867
489
root 2.04248 16.639 -27.0158 -168.059 -14.9687 -177.116
lowerback -12.1636 -3.76566 1.26218
upperback 0.150365 -5.59124 3.48787
thorax 7.21684 -2.81376 1.94848
lowerneck 1.76705 -1.89592 -6.83794
upperneck -10.3701 -2.56964 7.47991
head -3.17136 -1.48608 3.48397
rclavicle 3.91109e-014 3.81667e-014
rhumerus -30.1814 -20.5489 -79.0691
rradius 23.4424
rwrist 36.914
rhand -0.649472 -7.46097
rfingers 7.12502
rthumb 24.9681 -35.8496
lclavicle 3.91109e-014 3.81667e-014
lhumerus -22.0926 3.23237 96.0671
lradius 24.7184
lwrist -23.7992
lhand -11.0188 7.32063
lfingers 7.12502
lthumb 15.0024 36.7572
rfemur -28.448 -4.82673 27.2312
rtibia 25.9052
rfoot -18.4807 12.3202
rtoes 10.6177
lfemur 3.45438 -7.10364 -9.65781
ltibia 16.3106
lfoot 15.1585 -12.5081
ltoes 3.00969
490
root 2.04232 16.6499 -27.0183 -167.661 -14.9596 -177.195
lowerback -12.5161 -3.76687 1.2739
upperback 0.0413845 -5.611 3.51151
thorax 7.30138 -2.82469 1.94327
lowerneck 1.77834 -1.85157 -6.84306
upperneck -10.3683 -2.51343 7.43368
head -3.17764 -1.45561 3.46935
rclavicle 2.5842e-015 1.70955e-014
rhumerus -30.2945 -20.3552 -79.0644
rradius 23.5107
rwrist 36.7681
rhand -0.653491 -7.48704
rfingers 7.12502
rthumb 24.9643 -35.8762
lclavicle 2.5842e-015 1.70955e-014
lhumerus -22.2095 3.46001 96.0523
lradius 24.6063
lwrist -23.9745
lhand -11.0361 7.23448
lfingers 7.12502
lthumb 14.9857 36.6722
rfemur -28.8475 -4.79512 27.1747
rtibia 25.9446
rfoot -18.321 12.3194
rtoes 10.2142
lfemur 2.99452 -7.02232 -9.72579
ltibia 16.3414
lfoot 15.2004 -12.4238
ltoes 2.6765
491
root 2.04165 16.6587 -27.0199 -167.33 -14.9431 -177.275
lowerback -12.8342 -3.74109 1.32099
upperback -0.0201161 -5.59497 3.49743
thorax 7.40847 -2.8146 1.8863
lowerneck 1.78637 -1.7869 -6.86774
upperneck -10.4065 -2.42422 7.49149
head -3.19558 -1.41428 3.48982
rclavicle -1.09083e-013 2.70347e-014
rhumerus -30.4499 -20.3393 -79.0107
rradius 23.6138
rwrist 36.7253
rhand -0.629372 -7.48655
rfingers 7.12502
rthumb 24.9874 -35.8725
lclavicle -1.09083e-013 2.70347e-014
lhumerus -22.2531 3.63221 95.9781
lradius 24.3365
lwrist -24.0359
lhand -11.0188 7.1545
lfingers 7.12502
lthumb 15.0023 36.591
rfemur -29.1921 -4.76841 27.1047
rtibia 25.9627
rfoot -18.2503 12.4116
rtoes 9.65845
lfemur 2.59629 -6.94123 -9.80756
ltibia 16.433
lfoot 15.2712 -12.2774
ltoes 2.63755
